<svg id="Layer_1" data-name="Layer 1" xmlns="http://www.w3.org/2000/svg" width="35.53" height="57" viewBox="0 0 35.53 57"><defs><style>.cls-1{fill:#fff;}</style></defs><title>logo</title><path class="cls-1" d="M250.14,120.45q3-1.53,6.05-3.07c.52-.26,1-.54,1.55-.83a1.19,1.19,0,0,0,.6-1.38,6.18,6.18,0,0,1,1.51-5.67,4.79,4.79,0,0,1,5.47-1.18,4.74,4.74,0,0,1,2.4,4.93,5.52,5.52,0,0,1-6.2,4.91,4,4,0,0,0-2.37.42c-2.41,1.17-4.84,2.31-7.25,3.48-.32.15-.55.18-.77-.18S250.49,121,250.14,120.45Zm9.55-6a2.89,2.89,0,0,0,4.23,2,4.49,4.49,0,0,0,2.33-5,3,3,0,0,0-3.81-2.15A4.46,4.46,0,0,0,259.69,114.5Z" transform="translate(-232.24 -96.5)"/><path class="cls-1" d="M246,121.35a26.4,26.4,0,0,1-1.62,4c-.15.35-.35.67-.47,1a11.19,11.19,0,0,1-3.86,5.2c-2.46,2-4.78,4.12-7.17,6.2l-.33.29c-.09.09-.18,0-.27,0a.93.93,0,0,1,0-.24,5.89,5.89,0,0,1,1-1.46l11-13.1C244.83,122.65,245.4,122,246,121.35Z" transform="translate(-232.24 -96.5)"/><path class="cls-1" d="M257.36,103.15a5.29,5.29,0,0,0-2.29-2.18,2.85,2.85,0,0,1-1.49-2.4,2.7,2.7,0,0,0-.64-1.68c-.23-.26-.53-.52-.87-.32s-.11.52,0,.8a3.75,3.75,0,0,1-1.49,4.26,6.28,6.28,0,0,0-1.81,1.82,4.41,4.41,0,0,0-.75,3.76c.24.72.16,1.58.74,2.19a.26.26,0,0,1,0,.24,8.62,8.62,0,0,0-.18,1.6c-.37,2.14-.71,4.29-1,6.44a18.78,18.78,0,0,1-1.26,5.1q-4.31,9.36-8.58,18.74a3.12,3.12,0,0,0-.37,1.13,7.42,7.42,0,0,0,1.36-1.5l2.89-4.37c3.11-4.72,6.21-9.45,9.34-14.17a21.31,21.31,0,0,1-1.4-1.88.62.62,0,0,1-.16-.52l1.56-8.32a1.22,1.22,0,0,1,1.19-1.08,6.53,6.53,0,0,0,4.31-2.1A5.17,5.17,0,0,0,257.36,103.15Zm-9.05,22.34a.63.63,0,0,1-.06.17q-7.12,11-7.28,10.85t6.63-11.08l.18-.66.08-.51a1.45,1.45,0,0,1,.35.51,2.55,2.55,0,0,1,.1.4A1,1,0,0,1,248.31,125.49Zm.14-2a.65.65,0,0,1-.81-.51.7.7,0,0,1,.07-.54.68.68,0,0,1,.47-.31.85.85,0,0,1,.84.53A.67.67,0,0,1,248.45,123.44Zm7.75-17a4.32,4.32,0,0,1-3.78,2.83,3,3,0,0,1-3-4.22,4.5,4.5,0,0,1,3.09-2.79,3.17,3.17,0,0,1,3.26.87A3,3,0,0,1,256.2,106.48Z" transform="translate(-232.24 -96.5)"/><path class="cls-1" d="M246.75,145.64h-2.33a.6.6,0,0,0-.6.59v7.25h1a.4.4,0,0,0,.4-.4v-2a1.15,1.15,0,0,0,.37.06h1.13a1.66,1.66,0,0,0,1.71-1.67v-2.12A1.57,1.57,0,0,0,246.75,145.64Zm-1.5,1.38h1.5c.22,0,.28.06.28.29v2.11a.29.29,0,0,1-.28.29h-1.3a.27.27,0,0,1-.2-.22Z" transform="translate(-232.24 -96.5)"/><path class="cls-1" d="M261.63,146v3.39a.29.29,0,0,1-.3.29h-1.28a.29.29,0,0,1-.29-.29V146a.4.4,0,0,0-.4-.4h-1v3.75a1.72,1.72,0,0,0,1.72,1.72h1.28a1.72,1.72,0,0,0,1.73-1.72v-3.75h-1A.4.4,0,0,0,261.63,146Z" transform="translate(-232.24 -96.5)"/><path class="cls-1" d="M266.26,149.71h-.88a.28.28,0,0,1-.28-.29V147H266a.39.39,0,0,0,.4-.39v-1H265.1v-2a.4.4,0,0,0-.4-.4h-1v6.1a1.72,1.72,0,0,0,1.72,1.72h1.28v-1A.39.39,0,0,0,266.26,149.71Z" transform="translate(-232.24 -96.5)"/><path class="cls-1" d="M243.18,147.22a2.28,2.28,0,0,0-.65-1.13,2.37,2.37,0,0,0-1.28-.58,2.32,2.32,0,0,0-1.19.14,2.27,2.27,0,0,0-.89.62,2.15,2.15,0,0,0-.48.95,2.26,2.26,0,0,0,.09,1.13c.26.83,1,2.71,2.12,5.14h0a0,0,0,0,0,0,0,44,44,0,0,0,2.14-5.13A2.16,2.16,0,0,0,243.18,147.22Zm-1,.49s0,.06,0,.09a.17.17,0,0,1-.1,0h-.14s0,0,0,0v.84a.14.14,0,0,1-.12.14h-.48v-.71a.15.15,0,0,0-.15-.14h-.33a.14.14,0,0,0-.12.14v.71h-.48a.14.14,0,0,1-.12-.15v-.83s0,0,0,0h-.21c-.06,0-.07-.08-.08-.08a.21.21,0,0,1,0-.08.16.16,0,0,1,0-.07s0,0,0-.05l.82-.78.17-.16a.18.18,0,0,1,.08,0,.16.16,0,0,1,.07,0,.24.24,0,0,1,.09,0l.32.3h0v-.08a.14.14,0,0,1,.15-.14h.18a.15.15,0,0,1,.12.15v.51l.21.19,0,0,0,0v0A.18.18,0,0,1,242.16,147.71Z" transform="translate(-232.24 -96.5)"/><path class="cls-1" d="M255.06,145.76a1.74,1.74,0,0,0-1.1,1.61v.34Z" transform="translate(-232.24 -96.5)"/><path class="cls-1" d="M255.68,147h1.72a.39.39,0,0,0,.4-.39v-1h-1.26l-2.58,3v.68a1.72,1.72,0,0,0,1.72,1.72h2.12v-1a.39.39,0,0,0-.4-.4h-1.72a.28.28,0,0,1-.28-.29v-2.09A.28.28,0,0,1,255.68,147Z" transform="translate(-232.24 -96.5)"/><path class="cls-1" d="M252.29,150.68l1.17-2.09V147.3a1.59,1.59,0,0,0-1.71-1.66h-2.34v1a.4.4,0,0,0,.4.4h1.94a.26.26,0,0,1,.29.29v.05h-1.46a1.72,1.72,0,0,0-1.72,1.72v.3a1.72,1.72,0,0,0,1.72,1.72h2.28a.6.6,0,0,0,.6-.6v-1.21Zm-.25-1h-1.46a.28.28,0,0,1-.28-.29V149a.27.27,0,0,1,.28-.28H252Z" transform="translate(-232.24 -96.5)"/><path class="cls-1" d="M236.24,145.65h-2.35v1a.4.4,0,0,0,.4.41h2c.26,0,.3.17.3.28v.06h-1.47a1.73,1.73,0,0,0-1.73,1.73v.3a1.74,1.74,0,0,0,1.73,1.73h2.29a.61.61,0,0,0,.61-.61v-3.22A1.61,1.61,0,0,0,236.24,145.65Zm-1.46,3.43a.28.28,0,0,1,.29-.29h1.47v.93h-1.47a.28.28,0,0,1-.29-.28Z" transform="translate(-232.24 -96.5)"/></svg>